<svg width="19" height="14" viewBox="0 0 19 14" fill="none" xmlns="http://www.w3.org/2000/svg">
<path fill-rule="evenodd" clip-rule="evenodd" d="M0.333984 13.875H18.6673V0.125H0.333984V13.875ZM1.58393 12.6258H17.4173V1.37576H1.58393V12.6258ZM2.83387 3.87561H16.1672V2.62652H2.83387V3.87561ZM12.834 6.37545H16.1673V5.12553H12.834V6.37545ZM6.58398 6.37492H11.584V5.125H6.58398V6.37492ZM2.83387 6.37545H5.33387V5.12553H2.83387V6.37545ZM12.834 8.87538H16.1673V7.62545H12.834V8.87538ZM6.58398 8.87492H11.5837V7.625H6.58398V8.87492ZM2.83387 8.8753H5.33387V7.62538H2.83387V8.8753ZM12.834 11.3745H16.1673V10.1254H12.834V11.3745ZM6.58398 11.3741H11.5837V10.125H6.58398V11.3741ZM2.83387 11.3752H5.33387V10.1261H2.83387V11.3752Z" fill="#7634BC"/>
</svg>
